<?xml version="1.0" encoding="UTF-8"?>
<svg id="Calque_2" data-name="Calque 2" xmlns="http://www.w3.org/2000/svg" viewBox="0 0 83.72 97.56">
  <defs>
    <style>
      .cls-1 {
        fill: #f7cf51;
      }

      .cls-1, .cls-2 {
        stroke: #282828;
        stroke-miterlimit: 10;
        stroke-width: 2px;
      }

      .cls-2 {
        fill: none;
      }
    </style>
  </defs>
  <g id="Modifier">
    <g>
      <ellipse class="cls-1" cx="40.78" cy="7.38" rx="6.36" ry="6.38"/>
      <path class="cls-2" d="M81.97,84.07c-1.29,2.41-3.27,3.2-5.5,3.44-1.69.19-3.52.07-5.32.11-2.87.05-5.74.13-8.6.17-3.81.06-7.62.13-11.44.18-3.87.06-7.75.1-11.64.14-2.3.02-4.59.04-6.88.05-1.97.01-3.93.02-5.89.02-3.19,0-6.39-.02-9.57-.06-2.67-.04-5.33-.09-7.99-.22-1.42-.08-2.93-.07-4.31-.45-4.57-1.23-5.01-7.88-1.52-10.54,1.23-.93,2.7-1.61,3.71-2.8.95-1.12,1.41-2.58,1.84-3.99.94-3.09.88-6.41,1.07-9.6.39-6.85.63-13.73,1.8-20.51.9-5.21,2.49-10.1,6.01-14.14,3.45-3.96,7.95-6.98,12.77-9,1.89-.79,3.85-1.44,5.85-1.88,2.92-.65,5.99-.8,8.93-.19,8.1,1.69,15.7,6.69,20.7,13.28,2.16,2.85,4.24,6.28,5.18,9.79,1.1,4.14.79,8.74.77,13-.04,5.9.18,11.8.66,17.67.2,2.5.65,4.96,2.94,6.33,1.92,1.16,4.04,1.48,5.74,2.99.74.65,1.27,1.85,1.4,2.82.16,1.35-.05,2.17-.7,3.37Z"/>
      <path class="cls-1" d="M51.2,89.04c0,4.15-4.19,7.52-9.34,7.52s-9.35-3.37-9.35-7.52c0-.31.02-.6.08-.86,2.28-.01,4.58-.03,6.88-.05,3.88-.04,7.76-.08,11.64-.14.07.31.1.67.1,1.06Z"/>
    </g>
  </g>
</svg>